/* XPM */
static char *_4340b52e2d9430edb27f014a921b384tKymqTgBr4FYkoXf[] = {
/* columns rows colors chars-per-pixel */
"32 33 19 1 ",
"  c None",
". c #131313",
"X c #24112F",
"o c gray18",
"O c #373735",
"+ c #464646",
"@ c #555553",
"# c #585858",
"$ c #747474",
"% c #96442C",
"& c #B98768",
"* c #F2AF7D",
"= c #A7A7A9",
"- c #AEAEC5",
"; c #DCC7CC",
": c #FDD8C6",
"> c gray88",
", c #F8F8F8",
"< c white",
/* pixels */
"                                ",
"             .ooo               ",
"          ..o.###o              ",
"          .###o###o.            ",
"         ..+###+###oo           ",
"        ....+#####$+.           ",
"        .o#######$$#o.          ",
"       .o##$##$$+####.          ",
"       o+++##+##++###.          ",
"       o++###++++++#+X          ",
"       ..oo++++++o+++X          ",
"        .oo+++++::o++X          ",
"        .o+++++o:::::X          ",
"        ..++o&&o&&::X           ",
"         .oo&:*o;X::X           ",
"         Xoo&:**,X::X           ",
"          Xoo&&*::::X           ",
"          XXXo&**:*X            ",
"            XX&&XXX             ",
"            X><>*X              ",
"            X=<=<X              ",
"            X=>=>X              ",
"           XOX*:XX              ",
"           XOX:*XX              ",
"           XO@XXOX              ",
"            X@@OX               ",
"            XOOX                ",
"             X%%X               ",
"             X--X               ",
"              XXX               ",
"                                ",
"                                ",
"                                "
};
