/* XPM */
static char *be1e315396d246b7a64cfe23ff6649fdqcNwZKuthblsE7ZU[] = {
/* columns rows colors chars-per-pixel */
"32 32 7 1 ",
"  c None",
". c black",
"X c #663931",
"o c #DF7126",
"O c #FBF236",
"+ c #D9A066",
"@ c white",
/* pixels */
"                                ",
"                                ",
"                                ",
"                                ",
"                                ",
"             .......            ",
"           ..@@@@@@@..          ",
"          .@@OOOOOOO@@.         ",
"        ..@OOOOOOOOOOO@..       ",
"        .@OOOXXXXXXXOOO@.       ",
"       .@OOOXoooooooXOOO@.      ",
"      .@OOOXo+o+o+o+oXOOO@.     ",
"      .OOOXo+o+++++o+oXOO@.     ",
"     .@OOXo++++O+O++++oXOO@.    ",
"     .@OOX++O+O+O+O+O++XOO@.    ",
"     .@OOX+O+OOOOOOO+O+XOO@.    ",
"     .OOO+O+OOOOOOOOO+O+OOO.    ",
"     .OOOX+OOOOOOOOOOO+XOOO.    ",
"     .OOO+OOOOOOOOOOOOO+OOO.    ",
"     .+OO++OOOO@O@OOOO++OO+.    ",
"      .OOO@+O@OOOOO@O+@OOO.     ",
"      .+OOO@+O@O@O@O+@OOO+.     ",
"       .+OOO@+++++++@OOO+.      ",
"        .+OOO@@@@@@@OOO+.       ",
"        ..+OOOOOOOOOOO+..       ",
"          .++OOOOOOO++.         ",
"           ..+++++++..          ",
"             .......            ",
"                                ",
"                                ",
"                                ",
"                                "
};
