/* XPM */
static char *result[] = {
/* columns rows colors chars-per-pixel */
"33 31 7 1 ",
"  c black",
". c #663931",
"X c #DF7126",
"o c #FBF236",
"O c #D9A066",
"+ c white",
"@ c None",
/* pixels */
"@@@@@@@@@@@@@@@@@@@@@@@@@@@@@@@@@",
"@@@@@@@@@@@@@@@@@@@@@@@@@@@@@@@@@",
"@@@@@@@@@@@@@@@@@@@@@@@@@@@@@@@@@",
"@@@@@@@@@@@@@@@@@@@@@@@@@@@@@@@@@",
"@@@@@@@@@@@@@@     @@@@@@@@@@@@@@",
"@@@@@@@@@@@@  +++++  @@@@@@@@@@@@",
"@@@@@@@@@@@ ++ooo++++ @@@@@@@@@@@",
"@@@@@@@@@  +oooooo++++  @@@@@@@@@",
"@@@@@@@@@ +ooo....o++++ @@@@@@@@@",
"@@@@@@@@@+ooo.XXXX.o++++ @@@@@@@@",
"@@@@@@@@ ooo.XXOOXX.o+++ @@@@@@@@",
"@@@@@@@@ oo.XOOOOOOX.o++ @@@@@@@@",
"@@@@@@@ +o.XOOOooOOOX.o++ @@@@@@@",
"@@@@@@@ +o.OOooOOooOO.o+o @@@@@@@",
"@@@@@@@ +o.OoOooooOoO.oo+ @@@@@@@",
"@@@@@@@ ooOoOooooooOoOo+o @@@@@@@",
"@@@@@@@ oo.OooooooooO.ooo @@@@@@@",
"@@@@@@@ ooOooooooooooOoOo @@@@@@@",
"@@@@@@@ OoOOooo++oooOOooO @@@@@@@",
"@@@@@@@@ oo+OooooooO+ooO @@@@@@@@",
"@@@@@@@@ ooo+O+oo+O+ooOO @@@@@@@@",
"@@@@@@@@ Oooo+OOOO+oooO @@@@@@@@@",
"@@@@@@@@@ Oooo++++ooooO @@@@@@@@@",
"@@@@@@@@@  OoooooooooO  @@@@@@@@@",
"@@@@@@@@@@@ OOoooooOO @@@@@@@@@@@",
"@@@@@@@@@@@@  OOOOO  @@@@@@@@@@@@",
"@@@@@@@@@@@@@@     @@@@@@@@@@@@@@",
"@@@@@@@@@@@@@@@@@@@@@@@@@@@@@@@@@",
"@@@@@@@@@@@@@@@@@@@@@@@@@@@@@@@@@",
"@@@@@@@@@@@@@@@@@@@@@@@@@@@@@@@@@",
"@@@@@@@@@@@@@@@@@@@@@@@@@@@@@@@@@"
};
