/* XPM */
static char *_a0f635180244aa2e3a0474f81f4b5a5fO2eTn0L8TCiJbCd[] = {
/* columns rows colors chars-per-pixel */
"32 32 6 1 ",
"  c None",
". c black",
"X c #DF7126",
"o c #FBF236",
"O c #D9A066",
"+ c white",
/* pixels */
"                                ",
"                                ",
"                                ",
"                                ",
"                                ",
"              ....              ",
"             .++++.             ",
"            .++++++.            ",
"            .++++++.            ",
"            .+o++o+.            ",
"            .o+oo+o.            ",
"            .+oooo+.            ",
"            .++++++.            ",
"            .+o++o+.            ",
"            .oooooo.            ",
"            .o+oo+o.            ",
"            .oooooo.            ",
"            .oooooo.            ",
"            .oooooo.            ",
"            .oooooo.            ",
"            .oooooo.            ",
"            .oooooo.            ",
"            .OoOoOo.            ",
"            .oOoOoO.            ",
"            .OOOOOO.            ",
"            .XOXOXO.            ",
"             .XXXX.             ",
"              ....              ",
"                                ",
"                                ",
"                                ",
"                                "
};
