/* XPM */
static char *b887af5bf8aa4fd99d474733a2539411hOCK4jdyDtHzYZND[] = {
/* columns rows colors chars-per-pixel */
"32 32 7 1 ",
"  c None",
". c black",
"X c #663931",
"o c #DF7126",
"O c #FBF236",
"+ c #D9A066",
"@ c white",
/* pixels */
"                                ",
"                                ",
"                                ",
"                                ",
"                                ",
"             .....              ",
"           ..@@@@@..            ",
"          .@@OOO@@@@.           ",
"        ..@OOOOOO@@@@..         ",
"        .@OOOXXXXO@@@@.         ",
"        @OOOXooooXO@@@@.        ",
"       .OOOXoo++ooXO@@@.        ",
"       .OOXo++++++oXO@@.        ",
"      .@OXo+++OO+++oXO@@.       ",
"      .@OX++OO++OO++XO@O.       ",
"      .@OX+O+OOOO+O+XOO@.       ",
"      .OO+O+OOOOOO+O+O@O.       ",
"      .OOX+OOOOOOOO+XOOO.       ",
"      .OO+OOOOOOOOOO+O+O.       ",
"      .+O++OOO@@OOO++OO+.       ",
"       .OO@+OOOOOO+@OO+.        ",
"       .OOO@+@OO@+@OO++.        ",
"       .+OOO@++++@OOO+.         ",
"        .+OOO@@@@OOOO+.         ",
"        ..+OOOOOOOOO+..         ",
"          .++OOOOO++.           ",
"           ..+++++..            ",
"             .....              ",
"                                ",
"                                ",
"                                ",
"                                "
};
