/* XPM */
static char *result[] = {
/* columns rows colors chars-per-pixel */
"32 32 7 1 ",
"  c black",
". c #663931",
"X c #DF7126",
"o c #FBF236",
"O c #D9A066",
"+ c white",
"@ c None",
/* pixels */
"@@@@@@@@@@@@@@@@@@@@@@@@@@@@@@@@",
"@@@@@@@@@@@@@@@@@@@@@@@@@@@@@@@@",
"@@@@@@@@@@@@@@@@@@@@@@@@@@@@@@@@",
"@@@@@@@@@@@@@@@@@@@@@@@@@@@@@@@@",
"@@@@@@@@@@@@@@@@@@@@@@@@@@@@@@@@",
"@@@@@@@@@@@@@@    @@@@@@@@@@@@@@",
"@@@@@@@@@@@@@ ++++ @@@@@@@@@@@@@",
"@@@@@@@@@@@@ +oo+++ @@@@@@@@@@@@",
"@@@@@@@@@@  +oooo+++  @@@@@@@@@@",
"@@@@@@@@@@ +o...oo+++ @@@@@@@@@@",
"@@@@@@@@@ +o.XXX.o++++ @@@@@@@@@",
"@@@@@@@@@ ooXXOX.oo+++ @@@@@@@@@",
"@@@@@@@@ oo.OOOOO.oo+++ @@@@@@@@",
"@@@@@@@@ ooXOOoOO.oo+o+ @@@@@@@@",
"@@@@@@@@ ooOOoOoo.ooo+o @@@@@@@@",
"@@@@@@@@ ooOOoooO.ooooo @@@@@@@@",
"@@@@@@@@ ooOoooooOoo+o+ @@@@@@@@",
"@@@@@@@@ ooOooooo.ooooo @@@@@@@@",
"@@@@@@@@ ooOoooooOooo+o @@@@@@@@",
"@@@@@@@@ ooOoo+ooOooooo @@@@@@@@",
"@@@@@@@@ oo+OoooooooOoO @@@@@@@@",
"@@@@@@@@@ ooO+o+OooooO @@@@@@@@@",
"@@@@@@@@@ Oo+OOO+ooOOo @@@@@@@@@",
"@@@@@@@@@@ Oo+++oooOO @@@@@@@@@@",
"@@@@@@@@@@  OoooooOO  @@@@@@@@@@",
"@@@@@@@@@@@@ OoooOO @@@@@@@@@@@@",
"@@@@@@@@@@@@@ OOOO @@@@@@@@@@@@@",
"@@@@@@@@@@@@@@    @@@@@@@@@@@@@@",
"@@@@@@@@@@@@@@@@@@@@@@@@@@@@@@@@",
"@@@@@@@@@@@@@@@@@@@@@@@@@@@@@@@@",
"@@@@@@@@@@@@@@@@@@@@@@@@@@@@@@@@",
"@@@@@@@@@@@@@@@@@@@@@@@@@@@@@@@@"
};
