/* XPM */
static char *result[] = {
/* columns rows colors chars-per-pixel */
"32 32 7 1 ",
"  c black",
". c #663931",
"X c #DF7126",
"o c #FBF236",
"O c #D9A066",
"+ c white",
"@ c None",
/* pixels */
"@@@@@@@@@@@@@@@@@@@@@@@@@@@@@@@@",
"@@@@@@@@@@@@@@@@@@@@@@@@@@@@@@@@",
"@@@@@@@@@@@@@@@@@@@@@@@@@@@@@@@@",
"@@@@@@@@@@@@@@@@@@@@@@@@@@@@@@@@",
"@@@@@@@@@@@@@@@@@@@@@@@@@@@@@@@@",
"@@@@@@@@@@@@@@    @@@@@@@@@@@@@@",
"@@@@@@@@@@@@@ ++++ @@@@@@@@@@@@@",
"@@@@@@@@@@@@ +++oo+ @@@@@@@@@@@@",
"@@@@@@@@@@  +++oooo+  @@@@@@@@@@",
"@@@@@@@@@@ +++oo...o+ @@@@@@@@@@",
"@@@@@@@@@ ++++o.XXX.o+ @@@@@@@@@",
"@@@@@@@@@ +++oo.XOXXoo @@@@@@@@@",
"@@@@@@@@ +++oo.OOOOO.oo @@@@@@@@",
"@@@@@@@@ +o+oo.OOoOOXoo @@@@@@@@",
"@@@@@@@@ o+ooo.ooOoOOoo @@@@@@@@",
"@@@@@@@@ ooooo.OoooOOoo @@@@@@@@",
"@@@@@@@@ +o+ooOoooooOoo @@@@@@@@",
"@@@@@@@@ ooooo.oooooOoo @@@@@@@@",
"@@@@@@@@ o+oooOoooooOoo @@@@@@@@",
"@@@@@@@@ oooooOoo+ooOoo @@@@@@@@",
"@@@@@@@@ OoOoooooooO+oo @@@@@@@@",
"@@@@@@@@@ OooooO+o+Ooo @@@@@@@@@",
"@@@@@@@@@ oOOoo+OOO+oO @@@@@@@@@",
"@@@@@@@@@@ OOooo+++oO @@@@@@@@@@",
"@@@@@@@@@@  OOoooooO  @@@@@@@@@@",
"@@@@@@@@@@@@ OOoooO @@@@@@@@@@@@",
"@@@@@@@@@@@@@ OOOO @@@@@@@@@@@@@",
"@@@@@@@@@@@@@@    @@@@@@@@@@@@@@",
"@@@@@@@@@@@@@@@@@@@@@@@@@@@@@@@@",
"@@@@@@@@@@@@@@@@@@@@@@@@@@@@@@@@",
"@@@@@@@@@@@@@@@@@@@@@@@@@@@@@@@@",
"@@@@@@@@@@@@@@@@@@@@@@@@@@@@@@@@"
};
