/* XPM */
static char *aba757b018724b85b4fdffe8c4f66b21AqG2sbr0hyIgQj1i[] = {
/* columns rows colors chars-per-pixel */
"32 32 9 1 ",
"  c None",
". c black",
"X c #584B44",
"o c #6D6666",
"O c #1B945F",
"+ c #35A948",
"@ c #8B8484",
"# c #BAB0B0",
"$ c #9EDF8A",
/* pixels */
"               ###              ",
"          @@#XX@@@#XX           ",
"       #X@@@#XX@@@#X@@#X        ",
"     X@@#Xo@@#X@@@XX@@#XX@      ",
"    XXo@@XXo@#XoooX@@#XX@@#     ",
"   @#XXo@#XXo.....o@#X@@@@#X    ",
"  X@@@#X@@...........Xo@##X@#   ",
"  Xoo@#................#XX@@@#  ",
" XXXXoX..................o@@@X  ",
" XX@#X...................o@@XX  ",
" Xo@@#....................oXX@# ",
" Xoo@@....................X@@@# ",
"@@XXXX.......OOOOO........o@@@X ",
"o@@XX......OO+++++OO.......oXX##",
"Xo@##.....O++$$$$$++O......X@@@#",
"XXo@#....O++$+++++$++O.....o@@@X",
"XXXXX...O++$+OOOOO+$++O....o@@XX",
"o@@#X...O+$+OO...OO+$+O....XXX##",
"X@@@#..O+$+OO.....OO+$+O...o@@@#",
"Xo@@#..O+$+O.......O+$+O...o@@@#",
"XoXoX..O+$+O.......O+$+O...XooXX",
"XXXXX..O+$+O.......O+$+O...@XX##",
"@@##X..O+$+OO.....OO+$+O...@@@@#",
"o@@@#...O+$+OO...OO+$+O....oo@XX",
"oo@XX...O++$+OOOOO+$++O....XXXX#",
"XoXXX....O++$+++++$++O.....@@#XX",
"XXX##.....O++$$$$$++O......@@@#X",
"X@@@#......OO+++++OO.......o@@@#",
"X@@@@........OOOOO.........Xo@XX",
"XXXXX......................XXX##",
"@@@#X......................o@@@#",
"oo@@X......................Xo@@X"
};
