/* XPM */
static char *result[] = {
/* columns rows colors chars-per-pixel */
"32 32 8 1 ",
"  c black",
". c #584B44",
"X c #6D6666",
"o c #35A948",
"O c #8B8484",
"+ c #BAB0B0",
"@ c #9EDF8A",
"# c None",
/* pixels */
"###############+++##############",
"##########OO+..OOO+..###########",
"#######+.OOO+..OOO+.OO+.########",
"#####.OO+.XOO+.OOO..OO+..O######",
"####..XOO..XO+.XXX.OO+..OO+#####",
"###O+..XO+..X@@@@@XO+.OOOO+.####",
"##.OOO+.OO@@ooooooo@@.XO++.O+###",
"##.XXO+@@ooo       ooo@+..OOO+##",
"#....X.oo             oo@XOOO.##",
"#..O+.oo               ooXOO..##",
"#.XOO+                   oX..O+#",
"#.XXOO                    .OOO+#",
"OO....                    XOOO.#",
"XOO..                      X..++",
".XO++                      .OOO+",
"..XO+                      XOOO.",
".....                      XOO..",
"XOO+.                      ...++",
".OOO+                      XOOO+",
".XOO+                      XOOO+",
".X.X.                      .XX..",
".....                      O..++",
"OO++.                      OOOO+",
"XOOO+                      XXO..",
"XXO..                      ....+",
".X...                      OO+..",
"...++                      OOO+.",
".OOO+                      XOOO+",
".OOOO                      .XO..",
".....                     o...++",
"OOO+.                     oXOOO+",
"XXOO.o                   o@.XOO."
};
