/* XPM */
static char *_41aa237f9fd457db2f18be9fac913a2QkKQWhsKFefzkehi[] = {
/* columns rows colors chars-per-pixel */
"32 32 9 1 ",
"  c None",
". c black",
"X c #584B44",
"o c #6D6666",
"O c #1B945F",
"+ c #35A948",
"@ c #8B8484",
"# c #BAB0B0",
"$ c #9EDF8A",
/* pixels */
"               ###              ",
"          @@#XX@@@#XX           ",
"       #X@@@#XX@@@#X@@#X        ",
"     X@@#Xo@@#X@@@XX@@#XX@      ",
"    XXo@@XXo@#XoooX@@#XX@@#     ",
"   @#XXo@#XXo.....o@#X@@@@#X    ",
"  X@@@#X@@...........Xo@##X@#   ",
"  Xoo@#................#XX@@@#  ",
" XXXXoX..................o@@@X  ",
" XX@#X...................o@@XX  ",
" Xo@@#....................oXX@# ",
" Xoo@@.......OOOOO........X@@@# ",
"@@XXXX.....OO+++++OO......o@@@X ",
"o@@XX....OO++$$$$$++OO.....oXX##",
"Xo@##...O++$$+++++$$++O....X@@@#",
"XXo@#...O+$++OOOOO++$+O....o@@@X",
"XXXXX..O+$++O.....O++$+O...o@@XX",
"o@@#X..O+$+O.......O+$+O...XXX##",
"X@@@#.O+$+O.........O+$+O..o@@@#",
"Xo@@#.O+$+O.........O+$+O..o@@@#",
"XoXoX.O+$+O.........O+$+O..XooXX",
"XXXXX.O+$+O.........O+$+O..@XX##",
"@@##X.O+$+O.........O+$+O..@@@@#",
"o@@@#..O+$+O.......O+$+O...oo@XX",
"oo@XX..O+$++O.....O++$+O...XXXX#",
"XoXXX...O+$++OOOOO++$+O....@@#XX",
"XXX##...O++$$+++++$$++O....@@@#X",
"X@@@#....OO++$$$$$++OO.....o@@@#",
"X@@@@......OO+++++OO.......Xo@XX",
"XXXXX........OOOOO.........XXX##",
"@@@#X......................o@@@#",
"oo@@X......................Xo@@X"
};
