/* XPM */
static char *cfcf09d55d30425bdb757520c6e960b6PBs8lW35gutAjfNP[] = {
/* columns rows colors chars-per-pixel */
"32 32 8 1 ",
"  c None",
". c black",
"X c #584B44",
"o c #6D6666",
"O c #35A948",
"+ c #8B8484",
"@ c #BAB0B0",
"# c #9EDF8A",
/* pixels */
"               @@@              ",
"          ++@XX+++@XX           ",
"       @X+++@XX+++@X++@X        ",
"     X++@Xo++@X+++XX++@XX+      ",
"    XXo++XXo+@XoooX++@XX++@     ",
"   +@XXo+@XXo.....o+@X++++@X    ",
"  X+++@X++...........Xo+@@X+@   ",
"  Xoo+@................@XX+++@  ",
" XXXXoX..................o+++X  ",
" XX+@X...................o++XX  ",
" Xo++@......OOOOOOO.......oXX+@ ",
" Xoo++....OOO#####OOO.....X+++@ ",
"++XXXX...OO##OOOOO##OO....o+++X ",
"o++XX...O##OO.....OO##O....oXX@@",
"Xo+@@..O#OO.........OO#O...X+++@",
"XXo+@.OO#O...........O#OO..o+++X",
"XXXXX.O#O.............O#O..o++XX",
"o++@XOO#O.............O#OO.XXX@@",
"X+++@O#O...............O#O.o+++@",
"Xo++@O#O...............O#O.o+++@",
"XoXoXO#O...............O#O.XooXX",
"XXXXXO#O...............O#O.+XX@@",
"++@@XO#O...............O#O.++++@",
"o+++@OO#O.............O#OO.oo+XX",
"oo+XX.O#O.............O#O..XXXX@",
"XoXXX.OO#O...........O#OO..++@XX",
"XXX@@..O#OO.........OO#O...+++@X",
"X+++@...O##OO.....OO##O....o+++@",
"X++++....OO##OOOOO##OO.....Xo+XX",
"XXXXX.....OOO#####OOO......XXX@@",
"+++@X.......OOOOOOO........o+++@",
"oo++X......................Xo++X"
};
