/* XPM */
static char *result[] = {
/* columns rows colors chars-per-pixel */
"32 32 8 1 ",
"  c black",
". c #584B44",
"X c #6D6666",
"o c #35A948",
"O c #8B8484",
"+ c #BAB0B0",
"@ c #9EDF8A",
"# c None",
/* pixels */
"###############+++##############",
"##########OO+..OOO+..###########",
"#######+.OOO+..OOO+.OO+.########",
"#####.OO+.XOO+.OOO..OO+..O######",
"####..XOO..XO+.XXX.OO+..OO+#####",
"###O+..XO+..X     XO+.OOOO+.####",
"##.OOO+.OO           .XO++.O+###",
"##.XXO+                +..OOO+##",
"#....X.     ooooooo      XOOO.##",
"#..O+.    oo@@@@@@@oo    XOO..##",
"#.XOO+  oo@@ooooooo@@oo   X..O+#",
"#.XXOO oo@oo       oo@oo  .OOO+#",
"OO....o@@o           o@@o XOOO.#",
"XOO..oo@o             o@oo X..++",
".XO++o@o               o@o .OOO+",
"..XO+@o                 o@oXOOO.",
".....@o                 o@oXOO..",
"XOO+.o                   o@...++",
".OOO+o                   o@XOOO+",
".XOO+o                   o@XOOO+",
".X.X.o                   o@.XX..",
".....o                   o@O..++",
"OO++.o                   o@OOOO+",
"XOOO+o                   o@XXO..",
"XXO..@o                 o@o....+",
".X...@o                 o@oOO+..",
"...++o@o               o@o OOO+.",
".OOO+oo@o             o@oo XOOO+",
".OOOO o@@o           o@@o  .XO..",
".....  oo@oo       oo@oo   ...++",
"OOO+.   oo@@ooooooo@@oo    XOOO+",
"XXOO.     oo@@@@@@@oo      .XOO."
};
