/* XPM */
static char *_4f72b5fe29b46e5a4b6a473359c7e30nWm386BuFJz4uTK9[] = {
/* columns rows colors chars-per-pixel */
"32 32 9 1 ",
"  c None",
". c black",
"X c #584B44",
"o c #6D6666",
"O c #1B945F",
"+ c #35A948",
"@ c #8B8484",
"# c #BAB0B0",
"$ c #9EDF8A",
/* pixels */
"               ###              ",
"          @@#XX@@@#XX           ",
"       #X@@@#XX@@@#X@@#X        ",
"     X@@#Xo@@#X@@@XX@@#XX@      ",
"    XXo@@XXo@#XoooX@@#XX@@#     ",
"   @#XXo@#XXo.....o@#X@@@@#X    ",
"  X@@@#X@@...........Xo@##X@#   ",
"  Xoo@#................#XX@@@#  ",
" XXXXoX..................o@@@X  ",
" XX@#X...................o@@XX  ",
" Xo@@#....................oXX@# ",
" Xoo@@....................X@@@# ",
"@@XXXX....................o@@@X ",
"o@@XX......................oXX##",
"Xo@##......................X@@@#",
"XXo@#......................o@@@X",
"XXXXX......................o@@XX",
"o@@#X.........OOO..........XXX##",
"X@@@#........O+++O.........o@@@#",
"Xo@@#.......O++$++O........o@@@#",
"XoXoX.......O+$+$+O........XooXX",
"XXXXX.......O++$++O........@XX##",
"@@##X........O+++O.........@@@@#",
"o@@@#.........OOO..........oo@XX",
"oo@XX......................XXXX#",
"XoXXX......................@@#XX",
"XXX##......................@@@#X",
"X@@@#......................o@@@#",
"X@@@@......................Xo@XX",
"XXXXX......................XXX##",
"@@@#X......................o@@@#",
"oo@@X......................Xo@@X"
};
