/* XPM */
static char *b69fbfca7d8540b0971f2d0dd7136e28YXDC2xXRBF7a42Pr[] = {
/* columns rows colors chars-per-pixel */
"32 32 9 1 ",
"  c None",
". c black",
"X c #584B44",
"o c #6D6666",
"O c #1B945F",
"+ c #35A948",
"@ c #8B8484",
"# c #BAB0B0",
"$ c #9EDF8A",
/* pixels */
"               ###              ",
"          @@#XX@@@#XX           ",
"       #X@@@#XX@@@#X@@#X        ",
"     X@@#Xo@@#X@@@XX@@#XX@      ",
"    XXo@@XXo@#XoooX@@#XX@@#     ",
"   @#XXo@#XXo.....o@#X@@@@#X    ",
"  X@@@#X@@...........Xo@##X@#   ",
"  Xoo@#................#XX@@@#  ",
" XXXXoX..................o@@@X  ",
" XX@#X...................o@@XX  ",
" Xo@@#....................oXX@# ",
" Xoo@@....................X@@@# ",
"@@XXXX....................o@@@X ",
"o@@XX......................oXX##",
"Xo@##.......OOOOOOO........X@@@#",
"XXo@#......OO+++++OO.......o@@@X",
"XXXXX.....O++$$$$$+OO......o@@XX",
"o@@#X....O++$+++++$+OO.....XXX##",
"X@@@#....O+$++OOO++$+O.....o@@@#",
"Xo@@#....O+$+O...O+$+O.....o@@@#",
"XoXoX....O+$+O...O+$+O.....XooXX",
"XXXXX....O+$+O...O+$+O.....@XX##",
"@@##X....O+$++OOOO+$+O.....@@@@#",
"o@@@#....OO+$+++++$+OO.....oo@XX",
"oo@XX.....OO+$$$$$++O......XXXX#",
"XoXXX......O+++++++O.......@@#XX",
"XXX##.......OOOOOOO........@@@#X",
"X@@@#......................o@@@#",
"X@@@@......................Xo@XX",
"XXXXX......................XXX##",
"@@@#X......................o@@@#",
"oo@@X......................Xo@@X"
};
