/* XPM */
static char *ca69601235bb40f0e72e767fe77043b3AEr5IGIbuz5bSzLV[] = {
/* columns rows colors chars-per-pixel */
"32 32 9 1 ",
"  c None",
". c black",
"X c #584B44",
"o c #6D6666",
"O c #1B945F",
"+ c #35A948",
"@ c #8B8484",
"# c #BAB0B0",
"$ c #9EDF8A",
/* pixels */
"               ###              ",
"          @@#XX@@@#XX           ",
"       #X@@@#XX@@@#X@@#X        ",
"     X@@#Xo@@#X@@@XX@@#XX@      ",
"    XXo@@XXo@#XoooX@@#XX@@#     ",
"   @#XXo@#XXo.....o@#X@@@@#X    ",
"  X@@@#X@@...........Xo@##X@#   ",
"  Xoo@#................#XX@@@#  ",
" XXXXoX..................o@@@X  ",
" XX@#X...................o@@XX  ",
" Xo@@#....................oXX@# ",
" Xoo@@....................X@@@# ",
"@@XXXX....................o@@@X ",
"o@@XX........OOOOO.........oXX##",
"Xo@##......OO+++++OO.......X@@@#",
"XXo@#.....OO+$$$$$+OO......o@@@X",
"XXXXX....OO+$+++++$+OO.....o@@XX",
"o@@#X....O+$++OOO++$+O.....XXX##",
"X@@@#...O+$++O...O++$+O....o@@@#",
"Xo@@#...O+$+O.....O+$+O....o@@@#",
"XoXoX...O+$+O.....O+$+O....XooXX",
"XXXXX...O+$+O.....O+$+O....@XX##",
"@@##X...O+$++O...O++$+O....@@@@#",
"o@@@#....O+$++OOO++$+O.....oo@XX",
"oo@XX....OO+$+++++$+OO.....XXXX#",
"XoXXX.....OO+$$$$$+OO......@@#XX",
"XXX##......OO+++++OO.......@@@#X",
"X@@@#........OOOOO.........o@@@#",
"X@@@@......................Xo@XX",
"XXXXX......................XXX##",
"@@@#X......................o@@@#",
"oo@@X......................Xo@@X"
};
