/* XPM */
static char *result[] = {
/* columns rows colors chars-per-pixel */
"32 32 8 1 ",
"  c black",
". c #584B44",
"X c #6D6666",
"o c #35A948",
"O c #8B8484",
"+ c #BAB0B0",
"@ c #9EDF8A",
"# c None",
/* pixels */
"###############+++##############",
"##########OO+..OOO+..###########",
"#######+.OOO+..OOO+.OO+.########",
"#####.OO+.XOO+.OOO..OO+..O######",
"####..XOO..XO+.XXX.OO+..OO+#####",
"###O+..XO+..X     XO+.OOOO+.####",
"##.OOO+.OO           .XO++.O+###",
"##.XXO+                +..OOO+##",
"#....X.                  XOOO.##",
"#..O+.      ooooooo      XOO..##",
"#.XOO+    oo@@@@@@@oo     X..O+#",
"#.XXOO   o@@ooooooo@@o    .OOO+#",
"OO.... oo@ooo     ooo@oo  XOOO.#",
"XOO..  o@oo         oo@o   X..++",
".XO++ o@o             o@o  .OOO+",
"..XO+o@oo             oo@o XOOO.",
".....o@o               o@o XOO..",
"XOO+.@oo               oo@o...++",
".OOO+@o                 o@oXOOO+",
".XOO+@o                 o@oXOOO+",
".X.X.@o                 o@o.XX..",
".....@o                 o@oO..++",
"OO++.@o                 o@oOOOO+",
"XOOO+@oo               oo@oXXO..",
"XXO..o@o               o@o ....+",
".X...o@oo             oo@o OO+..",
"...++ o@o             o@o  OOO+.",
".OOO+  o@oo         oo@o   XOOO+",
".OOOO  oo@ooo     ooo@oo   .XO..",
".....    o@@ooooooo@@o     ...++",
"OOO+.     oo@@@@@@@oo      XOOO+",
"XXOO.       ooooooo        .XOO."
};
