/* XPM */
static char *_075175930214541a977079828553fdd00EC9eSpSkKZpHYl[] = {
/* columns rows colors chars-per-pixel */
"32 32 6 1 ",
"  c None",
". c #181425",
"X c #262B44",
"o c #5A6988",
"O c #8B9BB4",
"+ c white",
/* pixels */
"                                ",
"                                ",
"                                ",
"                                ",
"                                ",
"                                ",
"       +o              +o       ",
"       Oo              Oo       ",
"    ..+Ooo..        ..+Ooo..    ",
"   ...+OOo...      ...+OOo...   ",
"  ..XOOOoooX..    ..XOOOoooX..  ",
"  .XXoOooooXX.    .XXoOooooXX.  ",
"   XXXooooXXX      XXXooooXXX   ",
"    XXXXXXXX        XXXXXXXX    ",
"                                ",
"               +o               ",
"               Oo               ",
"            ..+Ooo..            ",
"           ...+OOo...           ",
"          ..XOOOoooX..          ",
"          .XXoOooooXX.          ",
"           XXXooooXXX           ",
"            XXXXXXXX            ",
"                                ",
"       +o              +o       ",
"       Oo              Oo       ",
"    ..+Ooo..        ..+Ooo..    ",
"   ...+OOo...      ...+OOo...   ",
"  ..XOOOoooX..    ..XOOOoooX..  ",
"  .XXoOooooXX.    .XXoOooooXX.  ",
"   XXXooooXXX      XXXooooXXX   ",
"    XXXXXXXX        XXXXXXXX    "
};
