/* XPM */
static char *_3bd58a5107a4e45851302f25bce6eabamZqmHZ72u7VXIQO[] = {
/* columns rows colors chars-per-pixel */
"32 31 4 1 ",
"  c None",
". c #181425",
"X c #262B44",
"o c #8B9BB4",
/* pixels */
"                                ",
"                                ",
"                                ",
"                                ",
"                                ",
"                                ",
"                                ",
"   ........        ........     ",
"  ..........      ..........    ",
" ..XXXXXXXX..    ..XXXXXXXX..   ",
" .XXXXooXXXX.    .XXXXooXXXX.   ",
"  XXXXXXXXXX      XXXXXXXXXX    ",
"   XXXXXXXX        XXXXXXXX     ",
"                                ",
"                                ",
"                                ",
"           ........             ",
"          ..........            ",
"         ..XXXXXXXX..           ",
"         .XXXXooXXXX.           ",
"          XXXXXXXXXX            ",
"           XXXXXXXX             ",
"                                ",
"                                ",
"                                ",
"   ........        ........     ",
"  ..........      ..........    ",
" ..XXXXXXXX..    ..XXXXXXXX..   ",
" .XXXXooXXXX.    .XXXXooXXXX.   ",
"  XXXXXXXXXX      XXXXXXXXXX    ",
"   XXXXXXXX        XXXXXXXX     "
};
