/* XPM */
static char *f6de157aa6ba4c60c118ed5bfc8dc2d7pct5EjYpuCrnruYV[] = {
/* columns rows colors chars-per-pixel */
"32 29 7 1 ",
"  c None",
". c #181425",
"X c #262B44",
"o c #5A6988",
"O c #8B9BB4",
"+ c #C0CBDC",
"@ c white",
/* pixels */
"                                ",
"                                ",
"                                ",
"                                ",
"                                ",
"    ........        ........    ",
"   ..........      ..........   ",
"  ..XXX@OXXX..    ..XXX@OXXX..  ",
"  .XXX++OoXXX.    .XXX++OoXXX.  ",
"   XXXXOoXXXX      XXXXOoXXXX   ",
"    XXXXXXXX        XXXXXXXX    ",
"                                ",
"                                ",
"                                ",
"            ........            ",
"           ..........           ",
"          ..XXX@OXXX..          ",
"          .XXX++OoXXX.          ",
"           XXXXOoXXXX           ",
"            XXXXXXXX            ",
"                                ",
"                                ",
"                                ",
"    ........        ........    ",
"   ..........      ..........   ",
"  ..XXX@OXXX..    ..XXX@OXXX..  ",
"  .XXX++OoXXX.    .XXX++OoXXX.  ",
"   XXXXOoXXXX      XXXXOoXXXX   ",
"    XXXXXXXX        XXXXXXXX    "
};
