/* XPM */
static char *_a0d9249fe444d9b96ef0cbedc1b091ct8kvAzcBXMC8RayM[] = {
/* columns rows colors chars-per-pixel */
"32 32 3 1 ",
"  c None",
". c #181425",
"X c #262B44",
/* pixels */
"                                ",
"                                ",
"                                ",
"                                ",
"                                ",
"                                ",
"                                ",
"                                ",
"    ........        ........    ",
"   ..........      ..........   ",
"  ..XXXXXXXX..    ..XXXXXXXX..  ",
"  .XXXXXXXXXX.    .XXXXXXXXXX.  ",
"   XXXXXXXXXX      XXXXXXXXXX   ",
"    XXXXXXXX        XXXXXXXX    ",
"                                ",
"                                ",
"                                ",
"            ........            ",
"           ..........           ",
"          ..XXXXXXXX..          ",
"          .XXXXXXXXXX.          ",
"           XXXXXXXXXX           ",
"            XXXXXXXX            ",
"                                ",
"                                ",
"                                ",
"    ........        ........    ",
"   ..........      ..........   ",
"  ..XXXXXXXX..    ..XXXXXXXX..  ",
"  .XXXXXXXXXX.    .XXXXXXXXXX.  ",
"   XXXXXXXXXX      XXXXXXXXXX   ",
"    XXXXXXXX        XXXXXXXX    "
};
