/* XPM */
static char *_31d2f61843a4fac87ed9f764a4ef0c4ug9WPPWGMm3s2hE1[] = {
/* columns rows colors chars-per-pixel */
"32 32 6 1 ",
"  c None",
". c #181425",
"X c #3A4466",
"o c #5A6988",
"O c #8B9BB4",
"+ c white",
/* pixels */
"                                ",
"       +o              +o       ",
"       Oo              Oo       ",
"      O+Oo            O+Oo      ",
"      ++Oo            ++Oo      ",
"     O+OOoo          O+OOoo     ",
"     ++OOoo          ++OOoo     ",
"    O+OOoooo        O+OOoooo    ",
"    O+OOoooo        O+OOoooo    ",
"   +OOOoooooX      +OOOoooooX   ",
"  .OOooooooXX. +o .OOooooooXX.  ",
"  .oooooooXXX. Oo .oooooooXXX.  ",
"   ooooooXXXX O+Oo ooooooXXXX   ",
"    oooXXXXX  ++Oo  oooXXXXX    ",
"             O+OOoo             ",
"             ++OOoo             ",
"            O+OOoooo            ",
"            O+OOoooo            ",
"           +OOOoooooX           ",
"       +o .OOooooooXX. +o       ",
"       Oo .oooooooXXX. Oo       ",
"      O+Oo ooooooXXXX O+Oo      ",
"      ++Oo  oooXXXXX  ++Oo      ",
"     O+OOoo          O+OOoo     ",
"     ++OOoo          ++OOoo     ",
"    O+OOoooo        O+OOoooo    ",
"    O+OOoooo        O+OOoooo    ",
"   +OOOoooooX      +OOOoooooX   ",
"  .OOooooooXX.    .OOooooooXX.  ",
"  .oooooooXXX.    .oooooooXXX.  ",
"   ooooooXXXX      ooooooXXXX   ",
"    oooXXXXX        oooXXXXX    "
};
